<svg width="24" height="24" viewBox="0 0 24 24" fill="none" xmlns="http://www.w3.org/2000/svg">
<path d="M20.8375 2H3.1C2.80826 2 2.52847 2.11626 2.32218 2.32319C2.11589 2.53013 2 2.8108 2 3.10345L2 20.8967C2 21.1893 2.11589 21.47 2.32218 21.6769C2.52847 21.8839 2.80826 22.0001 3.1 22.0001H12.6563V14.2656H10.061V11.238H12.6563V9.01038C12.6563 6.42761 14.2306 5.02071 16.5269 5.02071C17.3007 5.01901 18.0741 5.05815 18.8438 5.13795V7.83796H17.2625C16.0113 7.83796 15.7672 8.43107 15.7672 9.30694V11.2345H18.7578L18.3694 14.2621H15.75V22.0001H20.8375C21.1293 22.0001 21.4091 21.8839 21.6153 21.6769C21.8216 21.47 21.9375 21.1893 21.9375 20.8967V3.10345C21.9375 2.8108 21.8216 2.53013 21.6153 2.32319C21.4091 2.11626 21.1293 2 20.8375 2Z" fill="white"/>
</svg>
