<svg width="24" height="24" viewBox="0 0 24 24" fill="none" xmlns="http://www.w3.org/2000/svg">
<path d="M16.4806 2H7.51925C4.476 2 2.00012 4.476 2.00012 7.51924V16.4806C2.00012 19.524 4.476 21.9999 7.51925 21.9999H16.4806C19.5241 21.9999 22 19.5239 22 16.4806V7.51924C22.0001 4.476 19.5241 2 16.4806 2ZM20.2256 16.4806C20.2256 18.5455 18.5457 20.2254 16.4808 20.2254H7.51925C5.45446 20.2255 3.77461 18.5455 3.77461 16.4806V7.51924C3.77461 5.45445 5.45446 3.77449 7.51925 3.77449H16.4806C18.5456 3.77449 20.2255 5.45445 20.2255 7.51924L20.2256 16.4806Z" fill="white"/>
<path d="M11.9993 6.84668C9.15763 6.84668 6.84583 9.15848 6.84583 12.0001C6.84583 14.8417 9.15763 17.1534 11.9993 17.1534C14.841 17.1534 17.1528 14.8417 17.1528 12.0001C17.1528 9.15848 14.841 6.84668 11.9993 6.84668ZM11.9993 15.3788C10.1362 15.3788 8.62031 13.8631 8.62031 12C8.62031 10.1368 10.1361 8.62105 11.9993 8.62105C13.8625 8.62105 15.3783 10.1368 15.3783 12C15.3783 13.8631 13.8624 15.3788 11.9993 15.3788Z" fill="white"/>
<path d="M17.3698 5.34204C17.0279 5.34204 16.692 5.48045 16.4506 5.72296C16.208 5.96429 16.0685 6.30026 16.0685 6.64333C16.0685 6.98533 16.2081 7.32119 16.4506 7.5637C16.6919 7.80503 17.0279 7.94462 17.3698 7.94462C17.7128 7.94462 18.0476 7.80503 18.2901 7.5637C18.5327 7.32119 18.6711 6.98522 18.6711 6.64333C18.6711 6.30026 18.5327 5.96429 18.2901 5.72296C18.0488 5.48045 17.7128 5.34204 17.3698 5.34204Z" fill="white"/>
</svg>
